<svg xmlns="http://www.w3.org/2000/svg" width="296.517" height="378.344"><defs><clipPath id="a"><path d="M0 302.675h237.214V0H0v302.675z"/></clipPath></defs><g clip-path="url(#a)" transform="matrix(1.25 0 0 -1.25 0 378.344)"><path class="site-logo__path" fill="#0e7ea2" d="M236.17 151.318c0-80.256-46.633-149.984-46.633-149.984s-19.254 3.402-45.432 11.847c28.138 7.766 45.512 18.734 45.512 18.734 1.601 1.24 3.242 3.282 3.242 6.524V142.23c0 4.003-3.242 7.687-7.286 7.687h-77.855c-4.443 0-7.685-3.244-7.685-7.687v-32.022c0-4.082 3.242-7.325 7.685-7.325h32.465V68.42c-8.127-3.244-25.579-10.127-48.275-10.127-39.508 0-72.45 25.458-85.338 60.24a58.423 58.423 0 0 0-.88 2.483c-3.003 9.567-4.645 19.854-4.645 30.862 0 6.764.641 13.289 1.843 19.493 8.924 41.468 44.871 73.81 88.62 73.81 22.297 0 43.751-8.125 61.202-23.495 3.644-3.243 7.326-3.243 10.527 0l25.14 26.338c3.28 3.242 2.841 8.086-.36 11.367-14.572 12.449-31.183 22.216-48.995 28.74 28.738 9.528 50.515 13.209 50.515 13.209s46.632-69.767 46.632-150.023"/></g></svg>